<svg xmlns="http://www.w3.org/2000/svg" width="34" height="34" viewBox="0 0 34 34">
  <rect x="2" y="2" width="29" height="29" rx="6" ry="6" fill="#313244"/>
  <circle cx="16.5" cy="16.5" r="7" fill="#45475a"/>
  <g transform="translate(9 9)" fill="#878892">
    <path d="M 6,6 C 4.892,6 4,6.892 4,8 v 2 c 0,1.108 0.892,2 2,2 h 2 c 1.108,0 2,-0.892 2,-2 V 8 C 10,6.892 9.108,6 8,6 Z m 0,1 h 2 c 0.554,0 1,0.446 1,1 v 2 c 0,0.554 -0.446,1 -1,1 H 6 C 5.446,11 5,10.554 5,10 V 8 C 5,7.446 5.446,7 6,7 Z"/>
    <path d="M 8,4 C 6.892,4 6,4.892 6,6 H 7 C 7,5.446 7.446,5 8,5 h 2 c 0.554,0 1,0.446 1,1 v 2 c 0,0.554 -0.446,1 -1,1 v 1 c 1.108,0 2,-0.892 2,-2 V 6 C 12,4.892 11.108,4 10,4 Z" opacity="0.35"/>
  </g>
</svg>
